<svg xmlns="http://www.w3.org/2000/svg" xmlns:xlink="http://www.w3.org/1999/xlink" width="50" height="51.644" viewBox="0 0 50 51.644">
  <defs>
    <clipPath id="clip-path">
      <rect id="Rectangle_23" data-name="Rectangle 23" width="50" height="51.644" fill="#4bb00b"/>
    </clipPath>
  </defs>
  <g id="Group_23" data-name="Group 23" clip-path="url(#clip-path)">
    <path id="Path_38" data-name="Path 38" d="M50,206.244a6.309,6.309,0,0,1-1.99,3.27c-2.123,2.27-4.244,4.544-6.307,6.869a9.411,9.411,0,0,1-5.7,3.394,11.45,11.45,0,0,1-1.677.1c-4.754.007-9.509.065-14.261-.029a3.984,3.984,0,0,0-3.74,1.829,5.633,5.633,0,0,1,.56.689,1.692,1.692,0,0,1-.234,2.1c-1.311,1.41-2.62,2.822-3.963,4.2a5.47,5.47,0,0,1-1.091.691h-.843c-.664-.532-1.359-1.029-1.985-1.6q-4.017-3.675-8-7.387a1.839,1.839,0,0,1-.095-2.918c1.2-1.268,2.384-2.548,3.583-3.815,1.071-1.131,1.951-1.162,3.093-.133a1.466,1.466,0,0,0,.2.118q1.033-1.037,2.069-2.078c1.219-1.22,2.448-2.431,3.655-3.662a3.724,3.724,0,0,1,2.8-1.162c4.392.009,8.785,0,13.177.006a3.75,3.75,0,0,1,3.544,5.388c-.029.071-.049.147-.084.255a3.763,3.763,0,0,0,3.34-1.151c2.392-2.54,4.782-5.083,7.142-7.653a3.744,3.744,0,0,1,3.958-1.383,3.677,3.677,0,0,1,2.785,3.13c.006.033.048.06.074.09ZM14.9,220.614l.741-.922a4.383,4.383,0,0,1,3.767-1.584c4.834.054,9.669-.012,14.5.034a7.54,7.54,0,0,0,6.047-2.656c1.767-2,3.6-3.934,5.408-5.9.774-.842,1.564-1.669,2.31-2.535a1.7,1.7,0,0,0-.838-2.948,1.916,1.916,0,0,0-1.9.625c-2.332,2.515-4.7,4.993-7.01,7.532a6.269,6.269,0,0,1-4.959,2.123c-3.691-.027-7.382-.006-11.073-.011a3.163,3.163,0,0,1-.834-.077.7.7,0,0,1-.531-.881,1.674,1.674,0,0,1,.628-.767c.145-.108.427-.039.648-.039,2.527,0,5.055,0,7.582,0a2.062,2.062,0,0,0,2.058-1.362,1.984,1.984,0,0,0-2.01-2.581c-4.373-.009-8.746.006-13.119-.011a2.633,2.633,0,0,0-1.983.827q-2.5,2.52-5.023,5.019a4.14,4.14,0,0,1-.585.4l6.171,5.713m-3.749,7.033,4.006-4.456L5.81,214.55l-4.1,4.369,9.446,8.727" transform="translate(0 -177.714)" fill="#4bb00b"/>
    <path id="Path_39" data-name="Path 39" d="M110.1,0a32.437,32.437,0,0,1,3.349.623,13.329,13.329,0,1,1-5.5-.48c.394-.053.79-.1,1.184-.144h.963m11.085,13.437A11.567,11.567,0,1,0,109.591,25a11.562,11.562,0,0,0,11.594-11.566" transform="translate(-84.66)" fill="#4bb00b"/>
    <path id="Path_40" data-name="Path 40" d="M345.967,103.98c.741,0,1.482-.009,2.223,0a.893.893,0,1,1,.034,1.782q-2.283.027-4.566,0a.89.89,0,1,1,.026-1.779c.761-.014,1.522,0,2.283,0" transform="translate(-301.485 -91.458)" fill="#4bb00b"/>
    <path id="Path_41" data-name="Path 41" d="M21.8,105.78c-.72,0-1.44.01-2.16,0-.644-.011-1.055-.376-1.059-.907s.382-.878,1.052-.88q2.16-.008,4.319,0c.683,0,1.039.313,1.041.883s-.353.892-1.035.9c-.72.013-1.44,0-2.16,0" transform="translate(-16.345 -91.467)" fill="#4bb00b"/>
    <path id="Path_42" data-name="Path 42" d="M35.27,33.4a2.461,2.461,0,0,1,.341.1c1.395.652,2.794,1.293,4.177,1.969a.851.851,0,0,1,.2,1.5,1.09,1.09,0,0,1-.879.086c-1.355-.591-2.684-1.243-4.023-1.873a.915.915,0,0,1-.63-.983c.048-.266.328-.5.525-.724.053-.062.187-.054.292-.079" transform="translate(-30.293 -29.376)" fill="#4bb00b"/>
    <path id="Path_43" data-name="Path 43" d="M331.729,37.532c-.185-.163-.53-.342-.668-.623a.747.747,0,0,1,.326-1.039c1.45-.708,2.909-1.4,4.386-2.049a.855.855,0,0,1,.714,1.54c-1.464.725-2.95,1.4-4.429,2.1a2.385,2.385,0,0,1-.33.073" transform="translate(-291.122 -29.688)" fill="#4bb00b"/>
    <path id="Path_44" data-name="Path 44" d="M336.184,160.781c0,.86-.6,1.287-1.2,1.014q-2.124-.963-4.222-1.984a.861.861,0,0,1,.725-1.561c1.419.636,2.832,1.286,4.225,1.974.243.12.382.45.467.557" transform="translate(-290.511 -139.122)" fill="#4bb00b"/>
    <path id="Path_45" data-name="Path 45" d="M35.4,161.806c-.2-.225-.554-.452-.6-.733a1.053,1.053,0,0,1,.334-.91c1.453-.746,2.938-1.431,4.433-2.089a.745.745,0,0,1,1.017.494.836.836,0,0,1-.475,1.142c-1.372.641-2.743,1.287-4.116,1.924a4.927,4.927,0,0,1-.59.172" transform="translate(-30.602 -138.983)" fill="#4bb00b"/>
    <path id="Path_46" data-name="Path 46" d="M162.611,41.812c-1.141,0-2.1.014-3.059,0a1,1,0,0,1-.918-1.631q2.767-4.743,5.542-9.48a1.043,1.043,0,0,1,1.182-.618.942.942,0,0,1,.633,1.1c-.01.14,0,.281,0,.421q.05,2.976.1,5.951c0,.118.017.235.032.431.968,0,1.923,0,2.877,0,1.129,0,1.5.621.938,1.58q-2.755,4.715-5.517,9.425a1.02,1.02,0,0,1-1.176.621.958.958,0,0,1-.635-1.1c.012-.2,0-.4,0-.6,0-2,0-4,0-6.093m1.59,3.5.224.028,3.345-5.672c-.787,0-1.448,0-2.108,0-.954,0-1.249-.284-1.257-1.252-.012-1.35,0-2.7,0-4.049l-.219-.024-3.358,5.686c.816,0,1.511,0,2.206,0,.85,0,1.16.3,1.167,1.149.012,1.378,0,2.755,0,4.133" transform="translate(-139.344 -26.429)" fill="#4bb00b"/>
  </g>
</svg>
