<svg xmlns="http://www.w3.org/2000/svg" width="74.477" height="65.5" viewBox="0 0 74.477 65.5">
  <g id="Group_5" data-name="Group 5" transform="translate(0 0.5)">
    <path id="Path_11" data-name="Path 11" d="M29.134,188.464v-6.646H14.876c-4.4,0-8.8.008-13.2-.012-1.476-.007-1.9-.579-1.564-2q3.168-13.286,6.345-26.57c.716-2.994,1.5-5.973,2.132-8.984a1.864,1.864,0,0,1,2.184-1.7c8.927.03,17.854.016,26.78.016H59.633c2.3,0,2.352.059,2.835,2.279q2.7,12.428,5.421,24.849c.712,3.252,1.455,6.5,2.169,9.75.421,1.917.056,2.366-1.9,2.367q-11.489,0-22.978,0H41.171v6.652c.8,0,1.585.011,2.374,0a1.207,1.207,0,0,1,1.4,1.382c-.006,1.9-.013,3.81,0,5.714a1.224,1.224,0,0,1-1.4,1.393q-8.443,0-16.886,0a1.238,1.238,0,0,1-1.395-1.411c0-1.862,0-3.725,0-5.587,0-1.047.489-1.557,1.568-1.5.716.038,1.437.007,2.3.007m0-9.1h12.4c-.125-2.33-.244-4.545-.367-6.85-3.766,0-7.353-.013-10.94.028a.975.975,0,0,0-.7.633c-.171,2.049-.267,4.1-.388,6.188m11.928-9.23c-.139-2.477-.271-4.82-.4-7.147H30.23c-.173,2.438-.339,4.774-.507,7.147Zm-13.834,2.385c-3.479,0-6.768-.012-10.057.025a.9.9,0,0,0-.637.573c-.356,2.063-.653,4.137-.975,6.259h11.2c.154-2.273.3-4.454.466-6.857m26.548.086H43.526c.121,2.318.236,4.536.355,6.807h10.8l-.9-6.807M27.875,163H18.089l-1.11,7.116h10.4L27.875,163m39.783,16.473c-.292-1.335-.548-2.516-.808-3.694-.721-3.265-.722-3.265-4.09-3.265H56.137c.28,2.184.51,4.191.825,6.185a1.115,1.115,0,0,0,.765.742c3.245.052,6.492.033,9.931.033m-53.4-6.957c-3.259,0-6.3-.012-9.333.02-.266,0-.71.246-.764.456-.539,2.1-1.014,4.216-1.529,6.426H13.167l1.09-6.9m28.754-9.625c.136,2.554.259,4.862.383,7.208H53.421c-.3-2.273-.564-4.45-.891-6.618a.893.893,0,0,0-.649-.564c-2.906-.038-5.813-.025-8.87-.025m-2.457-2.41c-.138-2.475-.269-4.819-.4-7.215H30.877c-.159,2.406-.315,4.776-.476,7.215Zm25.064,9.647c-.5-2.3-.962-4.527-1.477-6.741a.831.831,0,0,0-.625-.475c-2.861-.032-5.722-.021-8.707-.021l1.005,7.237Zm-49.869-7.245c-1.844,0-3.531-.019-5.217.006-1.3.02-2.969-.374-3.789.278s-.82,2.37-1.136,3.631c-.275,1.1-.49,2.21-.723,3.278h9.75l1.115-7.193m12.323-2.391c.15-2.468.292-4.806.437-7.2H19.593l-1.11,7.2Zm24.054,0c-.295-2.291-.543-4.468-.894-6.628-.043-.266-.63-.618-.977-.631-1.69-.066-3.383-.03-5.076-.03H42.5c.14,2.572.268,4.913.4,7.289Zm1.4-7.285c.314,2.414.588,4.622.911,6.823a.79.79,0,0,0,.589.479c2.8.032,5.609.021,8.508.021-.505-2.306-.949-4.443-1.466-6.562a1.139,1.139,0,0,0-.77-.728c-2.522-.056-5.045-.033-7.772-.033m-36.276,0c-2.661,0-5.191-.023-7.719.031a1.154,1.154,0,0,0-.826.7c-.558,2.152-1.039,4.325-1.57,6.6,2.842,0,5.586.02,8.328-.032a1.084,1.084,0,0,0,.753-.707c.377-2.112.676-4.239,1.034-6.59M42.6,190.845H27.721v3.7H42.6Zm-11.141-45.92-.4,5.841h8.76c0-1.717.04-3.318-.034-4.914-.015-.319-.457-.879-.713-.887-2.479-.068-4.961-.04-7.609-.04m-10.575.088-.894,5.8H28.7c.133-1.94.262-3.821.4-5.8Zm29.962,5.808c-.249-1.817-.459-3.487-.725-5.148-.043-.266-.333-.7-.515-.7-2.467-.047-4.936-.031-7.533-.031.112,2.075.213,3.953.317,5.883ZM31.6,188.371h6.963v-6.483H31.6Zm20.792-43.447.8,5.9H61.4c-.4-1.79-.759-3.516-1.189-5.224a1.02,1.02,0,0,0-.693-.65c-2.314-.05-4.629-.03-7.129-.03m-33.86.012c-2.471,0-4.863-.017-7.254.03-.209,0-.527.4-.595.66-.439,1.7-.823,3.425-1.23,5.164h8.175l.9-5.854" transform="translate(0 -131.955)" fill="#4bb00b"/>
    <path id="Subtraction_1" data-name="Subtraction 1" d="M18.178,23.71c-.455,0-.746-.431-1.005-.873-.447-.763-.895-1.537-1.353-2.328l-.452-.781-.176-.3a9.452,9.452,0,0,0-1.059.182V17.493a5.085,5.085,0,0,0,3.416-4.834,5.089,5.089,0,0,0-5.1-5.2l-.131,0a5.221,5.221,0,0,0-5,4.5H0c.227-.326.651-.393,1.218-.393H1.3c.463,0,.965.005,1.58.005H5.149c.67-1.61.67-1.61-.78-2.448L3.6,8.68l-.044-.025c-.517-.3-1.052-.6-1.573-.913a1.216,1.216,0,0,1-.636-.806.786.786,0,0,1,.233-.653,1.459,1.459,0,0,1,.973-.321,1.024,1.024,0,0,1,.429.078c.934.44,1.808.954,2.733,1.5l.007,0,.068.04c.315.185.64.376.964.561l.045-.05L7.938,6.866q-.284-.495-.572-1C6.933,5.1,6.441,4.235,5.942,3.4A1.64,1.64,0,0,1,5.63,2.245a.919.919,0,0,1,.492-.556,1.09,1.09,0,0,1,.522-.15c.4,0,.748.285,1.07.873.142.258.3.512.446.757A11.539,11.539,0,0,1,8.9,4.528c.368.848.777,1.226,1.325,1.226a2.21,2.21,0,0,0,1.151-.424V2.29c0-.107,0-.213,0-.319,0-.26-.006-.525.009-.787C11.433.39,11.759.014,12.413,0h.035c.648,0,.985.388,1,1.152.028,1.263.047,2.4,0,3.539-.029.686.308.835.865,1a1.762,1.762,0,0,0,.489.086c.324,0,.542-.16.749-.551.341-.646.716-1.281,1.077-1.9l.044-.075c.192-.326.39-.664.58-1a1.165,1.165,0,0,1,.963-.706,1.123,1.123,0,0,1,.594.193c.534.338.593.846.178,1.553-.519.882-1.043,1.79-1.5,2.592l-.575,1c.662.7.964,1.017,1.34,1.017a3.115,3.115,0,0,0,1.278-.564l2.3-1.323a1.528,1.528,0,0,1,.743-.234.9.9,0,0,1,.791.5.947.947,0,0,1,.139.728,1.286,1.286,0,0,1-.657.739c-.768.451-1.524.889-2.324,1.353l-.149.086-.031.018-1.178.683c.125.48.246.948.385,1.481l.052.2h2.32c.676,0,1.227,0,1.736-.007H23.7c.7,0,1.343.123,1.352,1.019a.945.945,0,0,1-.234.711,1.515,1.515,0,0,1-1.078.293h-.074c-.448,0-.94-.006-1.548-.006l-1.218,0-1.252,0-.23.79c-.086.295-.175.6-.272.934l.969.561c.736.425,1.652.954,2.528,1.465.368.215.768.475.866.854a.921.921,0,0,1-.144.714.9.9,0,0,1-.793.516,1.93,1.93,0,0,1-.937-.324c-.959-.557-1.918-1.112-2.925-1.694l-.584-.338-.569.677-.578.687c.162.283.328.577.5.877l.013.023c.457.808.929,1.644,1.427,2.477.364.609.6,1.239-.174,1.718A1.081,1.081,0,0,1,18.178,23.71Z" transform="translate(48.927)" fill="#4bb00b" stroke="rgba(0,0,0,0)" stroke-width="1"/>
  </g>
</svg>
