<svg id="Group_22" data-name="Group 22" xmlns="http://www.w3.org/2000/svg" xmlns:xlink="http://www.w3.org/1999/xlink" width="50" height="45.244" viewBox="0 0 50 45.244">
  <defs>
    <clipPath id="clip-path">
      <rect id="Rectangle_22" data-name="Rectangle 22" width="50" height="45.244" fill="#4bb00b"/>
    </clipPath>
  </defs>
  <g id="Group_21" data-name="Group 21" clip-path="url(#clip-path)">
    <path id="Path_35" data-name="Path 35" d="M0,79.347a3.723,3.723,0,0,1,1.279-2.524,3.147,3.147,0,0,1,3.334-.5,2.942,2.942,0,0,1,2,2.633c.091,2.3.057,4.613.075,6.92,0,.294,0,.588,0,.87a11.771,11.771,0,0,1,1.788-.509,3.589,3.589,0,0,1,3.1,1.136q4.352,4.407,8.708,8.811a7,7,0,0,1,2.063,5.153c0,1.585,0,3.17,0,4.745,1.031.225,1.174.4,1.175,1.406,0,.932-.035,1.865.012,2.794a1.207,1.207,0,0,1-.782,1.348H22.5a1.224,1.224,0,0,1-.772-1.356c.047-.752.011-1.51.011-2.279H9.086c0,.782-.026,1.52.008,2.256a1.216,1.216,0,0,1-.832,1.379H8.135a1.244,1.244,0,0,1-.877-1.417c.037-.908.007-1.819.01-2.729,0-.98.2-1.213,1.178-1.374a3.559,3.559,0,0,0-1.064-3.439C5.581,101,3.9,99.209,2.154,97.484A6.879,6.879,0,0,1,.179,93.873C.1,93.483.059,93.085,0,92.691V79.347m20.486,26.8c0-1.878.02-3.7-.008-5.513a4.042,4.042,0,0,0-1.169-2.806q-4.542-4.664-9.136-9.279a1.744,1.744,0,0,0-1.752-.479,2.108,2.108,0,0,0-1.04,3.618c1.608,1.656,3.243,3.284,4.864,4.928.538.545.595,1.014.19,1.438s-.958.345-1.488-.189C9.366,96.266,7.805,94.653,6.2,93.08a4.389,4.389,0,0,1-1.348-3.364c.019-1.249,0-2.5,0-3.748,0-2.16.006-4.319,0-6.479A1.494,1.494,0,0,0,3.8,77.942a1.546,1.546,0,0,0-1.933,1.631q.062,6.351.007,12.7a5.345,5.345,0,0,0,1.7,4.077c1.835,1.788,3.625,3.622,5.444,5.425A4.029,4.029,0,0,1,10.3,104.9c-.015.412,0,.825,0,1.237Z" transform="translate(0 -66.383)" fill="#4bb00b"/>
    <path id="Path_36" data-name="Path 36" d="M209.62,111.71a1.209,1.209,0,0,1-.781-1.349c.047-.972.01-1.948.013-2.922,0-.871.219-1.111,1.174-1.231v-.6q0-2.1,0-4.193a6.936,6.936,0,0,1,2.027-5.1c2.935-2.965,5.847-5.953,8.8-8.9,1.4-1.391,3.019-1.438,4.8-.508.012-.265.031-.482.031-.7,0-2.181-.013-4.363.006-6.544a3.305,3.305,0,0,1,6.555-.77,3.805,3.805,0,0,1,.046.506c-.007,4.595,0,9.19-.038,13.785a5.8,5.8,0,0,1-1.732,4.047c-1.8,1.854-3.591,3.721-5.485,5.475a3.569,3.569,0,0,0-1.109,3.488c.987.161,1.178.391,1.179,1.429,0,.911-.024,1.822.008,2.732a1.2,1.2,0,0,1-.877,1.356h-.127a1.168,1.168,0,0,1-.827-1.317c.03-.773.007-1.548.007-2.306H210.637c0,.791-.036,1.533.011,2.269a1.222,1.222,0,0,1-.773,1.354Zm12.46-5.488c0-.3.018-.551,0-.8a4.584,4.584,0,0,1,1.6-3.89c1.823-1.738,3.576-3.549,5.354-5.334a4.847,4.847,0,0,0,1.461-3.592c-.019-4.213-.007-8.426-.008-12.639,0-1.3-.526-2.013-1.483-2.018s-1.5.7-1.5,2q0,4.954,0,9.908a4,4,0,0,1-1.043,2.968q-2.578,2.631-5.17,5.249a.956.956,0,0,1-.194.162.876.876,0,0,1-1.159-.113.825.825,0,0,1-.068-1.153,4.416,4.416,0,0,1,.437-.46c1.6-1.63,3.221-3.246,4.808-4.893a1.924,1.924,0,0,0-.09-2.833,1.891,1.891,0,0,0-2.821-.164q-4.615,4.636-9.175,9.327a4,4,0,0,0-1.128,2.758c-.034,1.693-.027,3.386-.033,5.08a3.152,3.152,0,0,0,.059.432Z" transform="translate(-182.292 -66.466)" fill="#4bb00b"/>
    <path id="Path_37" data-name="Path 37" d="M126.086,0a1.547,1.547,0,0,1,.787,1.2A37.978,37.978,0,0,1,127.5,9.9a8.876,8.876,0,0,1-7.32,8.387c-.954.169-1.927.231-3.005.356v.591q0,2.636,0,5.271c0,.148.007.3,0,.444a.931.931,0,0,1-.95.971c-.519-.021-.841-.366-.845-.986-.012-1.842,0-3.683,0-5.525,0-.252,0-.5,0-.764-1-.115-1.956-.192-2.905-.341a8.816,8.816,0,0,1-7.386-7.832,36.218,36.218,0,0,1,.594-9.462A1.29,1.29,0,0,1,106.511,0h.254a.592.592,0,0,0,.146.109A31.545,31.545,0,0,1,116.231,4.8a21.091,21.091,0,0,1,2.454-1.6c2.358-1.118,4.762-2.14,7.147-3.2Zm-8.268,16.778c.771-.1,1.42-.15,2.058-.263a6.936,6.936,0,0,0,5.691-5.659,25.221,25.221,0,0,0-.056-6.645c-.077-.666-.182-1.328-.284-2.063a29.383,29.383,0,0,0-7.583,3.907,6.583,6.583,0,0,0-2.168,2.912,7.828,7.828,0,0,0,.769,6.845c.175-.286.3-.479.414-.678q2.016-3.485,4.031-6.97c.116-.2.222-.467.4-.552a1.316,1.316,0,0,1,.921-.152,1.125,1.125,0,0,1,.515.767,1.414,1.414,0,0,1-.269.813c-1.345,2.347-2.7,4.686-4.059,7.028-.113.195-.214.4-.384.71M114.67,16.7c-.142-.265-.262-.5-.4-.736q-1.933-3.349-3.87-6.7c-.1-.164-.2-.326-.284-.494a.906.906,0,1,1,1.579-.866c.494.829.971,1.669,1.4,2.415L114.826,6a29.236,29.236,0,0,0-7.572-3.87c-.165,1.575-.423,3.064-.45,4.556a21.591,21.591,0,0,0,.3,4.729c.669,3.23,3.912,5.428,7.567,5.289" transform="translate(-91.64 0.001)" fill="#4bb00b"/>
  </g>
</svg>
