<svg xmlns="http://www.w3.org/2000/svg" xmlns:xlink="http://www.w3.org/1999/xlink" width="46.954" height="65" viewBox="0 0 46.954 65">
  <defs>
    <clipPath id="clip-path">
      <rect id="Rectangle_6" data-name="Rectangle 6" width="46.954" height="65" fill="#4bb00b"/>
    </clipPath>
  </defs>
  <g id="Group_1" data-name="Group 1" clip-path="url(#clip-path)">
    <path id="Path_1" data-name="Path 1" d="M3.064,0H43.88a9.348,9.348,0,0,1,1.589.627,3.494,3.494,0,0,1,1.486,3.331Q46.933,32.5,46.943,61.04c0,.3,0,.6-.025.905a3.229,3.229,0,0,1-2.471,2.893c-.191.045-.378.107-.568.161H3.064c-.261-.076-.524-.145-.783-.228C.756,64.283,0,63.078,0,61.115Q0,32.5,0,3.883c0-.277,0-.554.024-.83A3.22,3.22,0,0,1,2.495.16C2.687.114,2.874.053,3.064,0M44.743,32.517q0-14.245,0-28.49c0-1.475-.28-1.749-1.774-1.749h-39c-1.5,0-1.772.271-1.772,1.75q0,28.452,0,56.9c0,1.527.266,1.788,1.81,1.788h38.92c1.544,0,1.81-.262,1.81-1.788q0-14.207,0-28.414" transform="translate(0 0.001)" fill="#4bb00b"/>
    <path id="Path_2" data-name="Path 2" d="M54.82,52.966H39.563a2.273,2.273,0,0,1-2.584-2.593q-.009-5.249,0-10.5A2.274,2.274,0,0,1,39.522,37.3q15.333-.012,30.665,0a2.276,2.276,0,0,1,2.547,2.572q.012,5.249,0,10.5a2.276,2.276,0,0,1-2.582,2.6H54.82m15.668-13.38H39.225V50.677H70.489Z" transform="translate(-31.385 -31.655)" fill="#4bb00b"/>
    <path id="Path_3" data-name="Path 3" d="M136.829,325.936q2.946,0,5.893,0a5,5,0,0,1,5.244,4.641,4.78,4.78,0,0,1-4.7,5.36c-4.425.148-8.863.108-13.289-.047a4.811,4.811,0,0,1-4.347-5.028,5.008,5.008,0,0,1,4.847-4.918c2.115-.031,4.231-.006,6.347-.007m.008,2.25c-2.015,0-4.03-.006-6.045,0a2.76,2.76,0,0,0-2.934,2.778,2.812,2.812,0,0,0,2.862,2.806q6.121.038,12.241,0a2.784,2.784,0,0,0,2.817-2.843,2.754,2.754,0,0,0-2.9-2.737c-2.015-.01-4.03,0-6.045,0" transform="translate(-106.639 -276.653)" fill="#4bb00b"/>
    <path id="Path_4" data-name="Path 4" d="M217.211,168.144A5.01,5.01,0,1,1,212.2,163.1a5.011,5.011,0,0,1,5.009,5.046m-4.978-2.8a2.8,2.8,0,0,0-.06,5.6,2.8,2.8,0,1,0,.06-5.6" transform="translate(-175.867 -138.441)" fill="#4bb00b"/>
    <path id="Path_5" data-name="Path 5" d="M132.144,168.131a5.008,5.008,0,1,1-5.021-5.032,5.006,5.006,0,0,1,5.021,5.032m-5.026-2.785a2.8,2.8,0,1,0,2.805,2.818,2.77,2.77,0,0,0-2.805-2.818" transform="translate(-103.664 -138.441)" fill="#4bb00b"/>
    <path id="Path_6" data-name="Path 6" d="M132.148,249.716a5.007,5.007,0,1,1-5.038-4.978,4.941,4.941,0,0,1,5.038,4.978m-5.033,2.8a2.72,2.72,0,0,0,2.811-2.788,2.786,2.786,0,1,0-5.571.024,2.716,2.716,0,0,0,2.76,2.764" transform="translate(-103.669 -207.738)" fill="#4bb00b"/>
    <path id="Path_7" data-name="Path 7" d="M37.034,168.138a5.01,5.01,0,1,1,5,5.052,5.016,5.016,0,0,1-5-5.052m7.784-.03a2.744,2.744,0,0,0-2.774-2.763,2.8,2.8,0,1,0-.005,5.6,2.751,2.751,0,0,0,2.779-2.834" transform="translate(-31.435 -138.441)" fill="#4bb00b"/>
    <path id="Path_8" data-name="Path 8" d="M47.059,331.014a5.01,5.01,0,1,1-5.006-5.033,4.991,4.991,0,0,1,5.006,5.033m-5.033-2.781a2.764,2.764,0,0,0-2.783,2.76,2.83,2.83,0,0,0,2.822,2.828,2.765,2.765,0,0,0,2.757-2.866,2.7,2.7,0,0,0-2.8-2.722" transform="translate(-31.44 -276.699)" fill="#4bb00b"/>
    <path id="Path_9" data-name="Path 9" d="M42.046,244.738a5.01,5.01,0,1,1-5.007,5.009,4.937,4.937,0,0,1,5.007-5.009m2.775,4.974a2.746,2.746,0,0,0-2.769-2.772,2.807,2.807,0,0,0-2.809,2.835,2.749,2.749,0,0,0,2.87,2.745,2.7,2.7,0,0,0,2.708-2.808" transform="translate(-31.439 -207.738)" fill="#4bb00b"/>
    <path id="Path_10" data-name="Path 10" d="M217.215,249.721a5.009,5.009,0,1,1-5.033-4.983,4.94,4.94,0,0,1,5.033,4.983m-5.029,2.8a2.749,2.749,0,0,0,2.825-2.791,2.808,2.808,0,0,0-2.781-2.789,2.75,2.75,0,0,0-2.8,2.819,2.7,2.7,0,0,0,2.753,2.761" transform="translate(-175.872 -207.738)" fill="#4bb00b"/>
  </g>
</svg>
