<svg id="Group_9" data-name="Group 9" xmlns="http://www.w3.org/2000/svg" xmlns:xlink="http://www.w3.org/1999/xlink" width="62.71" height="65" viewBox="0 0 62.71 65">
  <defs>
    <clipPath id="clip-path">
      <rect id="Rectangle_14" data-name="Rectangle 14" width="62.71" height="65" fill="#4bb00b"/>
    </clipPath>
  </defs>
  <g id="Group_8" data-name="Group 8" clip-path="url(#clip-path)">
    <path id="Path_17" data-name="Path 17" d="M50.36,31.309c-.447,0-.859.016-1.27,0a2.5,2.5,0,0,1-2.524-2.621c-.009-1.042,0-2.084,0-3.14a8.005,8.005,0,0,1-5.522-4.955,9.631,9.631,0,0,1-.567-2.968c-.082-2.245-.026-4.494-.026-6.742,0-2.18.495-2.815,2.685-3.351,0-1.248-.031-2.521.008-3.792A3.579,3.579,0,0,1,45.082.472,3.508,3.508,0,0,1,48.8.6a3.424,3.424,0,0,1,1.691,3c.014,1.3,0,2.6,0,3.955h2.171c0-1.343-.018-2.667,0-3.991A3.629,3.629,0,0,1,55.843.049a3.587,3.587,0,0,1,4.03,2.8A16.307,16.307,0,0,1,60.02,5.42c.021.7,0,1.4,0,2.113.256.063.455.114.656.161A2.456,2.456,0,0,1,62.7,10.213c.011,2.4,0,4.809,0,7.213a8.143,8.143,0,0,1-5.6,7.94c-.146.052-.294.1-.515.177,0,.994,0,2.009,0,3.024A2.522,2.522,0,0,1,53.87,31.31c-1.258.022-1.147-.168-1.147,1.2,0,7.187.016,14.373-.008,21.56A10.659,10.659,0,0,1,44.29,64.714a11.942,11.942,0,0,1-2.639.25C35.066,64.984,28.48,64.9,21.9,65A10.887,10.887,0,0,1,10.813,54.621a2.2,2.2,0,0,0-.072-.309H9.913c-2.352,0-4.7.01-7.055-.005A2.713,2.713,0,0,1,0,51.454Q0,30.874,0,10.294A2.74,2.74,0,0,1,2.924,7.42c1.228,0,2.455,0,3.813,0,0-.978,0-1.932,0-2.885,0-1.6.693-2.288,2.285-2.289q3.567,0,7.133,0a1.942,1.942,0,0,1,2.136,2.066c.031.991.006,1.984.006,3.107,1.326,0,2.619-.007,3.911,0a2.683,2.683,0,0,1,2.629,1.846,4.117,4.117,0,0,1,.172,1.232q.013,20.384,0,40.768A2.769,2.769,0,0,1,21.94,54.31c-2.613.007-5.226,0-7.839,0h-.938a7.8,7.8,0,0,0,1.722,5.04,7.86,7.86,0,0,0,6.31,3.273c7.028.049,14.058.092,21.085-.007A8.2,8.2,0,0,0,50.4,54.341c.107-7.551.028-15.1.026-22.657a2.952,2.952,0,0,0-.07-.375M2.333,30.8c0,6.741.011,13.483-.015,20.224,0,.752.218.99.974.987C9.431,51.986,15.571,52,21.71,52c.962,0,1-.043,1-1.031q0-20.106,0-40.213c0-.982-.018-1-1.022-1H3.35c-1.015,0-1.017,0-1.017,1.056q0,9.994,0,19.989M42.862,9.977a1.62,1.62,0,0,0-.07.3c0,2.561-.034,5.122.006,7.683A5.714,5.714,0,0,0,48.386,23.4c2.038,0,4.08-.079,6.113.02A5.828,5.828,0,0,0,60.381,17.6c-.032-2.3,0-4.6-.008-6.9,0-.227-.031-.455-.05-.723ZM9.1,7.357h6.842V4.629H9.1ZM48.938,29.019c1.7,0,3.309.009,4.919-.016a.533.533,0,0,0,.378-.359c.033-.93.018-1.861.018-2.823H48.938ZM48.174,7.564c0-1.362.025-2.638-.009-3.913a1.258,1.258,0,0,0-1.288-1.29,1.277,1.277,0,0,0-1.39,1.194c-.05,1.321-.014,2.645-.014,4.009Zm9.516.012c0-1.364.023-2.639-.009-3.912a1.285,1.285,0,0,0-1.215-1.3c-.687-.062-1.383.314-1.415.942-.073,1.414-.023,2.835-.023,4.265Z" transform="translate(0 0)" fill="#4bb00b"/>
    <path id="Path_18" data-name="Path 18" d="M46,133.146c0,.993-.032,1.987.021,2.977a1.183,1.183,0,0,0,.439.8c.919.64,1.891,1.205,2.829,1.818a1.176,1.176,0,0,1,.368,1.914q-3.121,4.407-6.266,8.8a1.2,1.2,0,0,1-1.38.637c-.7-.208-.859-.737-.852-1.4.018-1.854-.01-3.709.017-5.563a.87.87,0,0,0-.547-.909c-1.14-.574-2.266-1.174-3.388-1.782a1.2,1.2,0,0,1-.44-2.051q3.493-4.524,7-9.036a1.186,1.186,0,0,1,2.193.74c.011,1.019,0,2.037,0,3.056Zm-2.311.413-.169-.057-4.191,5.415c1.051.561,1.965,1.118,2.936,1.548a1.815,1.815,0,0,1,1.2,2.024c-.065.859-.013,1.727-.013,2.591l.19.027,3.53-4.96c-.95-.6-1.816-1.176-2.706-1.71a1.443,1.443,0,0,1-.784-1.4c.034-1.158.01-2.318.01-3.477" transform="translate(-30.695 -108.581)" fill="#4bb00b"/>
    <path id="Path_19" data-name="Path 19" d="M310.847,111.3c.705,0,1.411-.013,2.115,0a1.147,1.147,0,0,1,1.237,1.134,1.174,1.174,0,0,1-1.211,1.18c-1.436.029-2.873.026-4.309,0a1.186,1.186,0,0,1-1.239-1.155,1.163,1.163,0,0,1,1.291-1.162c.705-.013,1.41,0,2.115,0" transform="translate(-259.242 -93.846)" fill="#4bb00b"/>
  </g>
</svg>
