<svg id="Group_7" data-name="Group 7" xmlns="http://www.w3.org/2000/svg" xmlns:xlink="http://www.w3.org/1999/xlink" width="64.427" height="65" viewBox="0 0 64.427 65">
  <defs>
    <clipPath id="clip-path">
      <rect id="Rectangle_12" data-name="Rectangle 12" width="64.427" height="65" fill="#4bb00b"/>
    </clipPath>
  </defs>
  <g id="Group_6" data-name="Group 6" clip-path="url(#clip-path)">
    <path id="Path_13" data-name="Path 13" d="M35.088,0A9.448,9.448,0,0,1,36.4,1.034q6.551,7.324,13.056,14.689a1.8,1.8,0,0,1,.5,1.012c.044,2.3.023,4.6.023,6.87H47.043V18.312H46.027q-5.341,0-10.682,0c-1.416,0-1.892-.464-1.894-1.864q-.008-6.149,0-12.3V3.106H2.989V59.988h1.1q14.048,0,28.1-.013a1.651,1.651,0,0,1,1.454.649c.651.815,1.37,1.575,2.022,2.315a2.268,2.268,0,0,1-.417.044q-16.606.005-33.212,0c-1.518,0-2.009-.479-2.01-1.967Q.013,31.531,0,2.044A1.847,1.847,0,0,1,1.331,0Zm10.1,15.32L36.412,5.471V15.32Z" transform="translate(0)" fill="#4bb00b"/>
    <path id="Path_14" data-name="Path 14" d="M197.006,186.06c-1.818-.536-3.683-.952-5.443-1.635a17.13,17.13,0,0,1-7.956-5.883,11.445,11.445,0,0,1-2.224-6.864q.009-7.984,0-15.969c0-1.191.464-1.756,1.511-1.789a20.293,20.293,0,0,0,11.8-4.621c.475-.361.921-.762,1.371-1.155a1.581,1.581,0,0,1,2.441-.018,22.551,22.551,0,0,0,10.591,5.508,17.836,17.836,0,0,0,2.4.269c1.266.071,1.725.518,1.728,1.862.01,3.828.021,7.656,0,11.483a52.144,52.144,0,0,1-.182,6.355c-.459,3.55-2.539,6.194-5.353,8.262a21.694,21.694,0,0,1-9.737,4.036,1.947,1.947,0,0,0-.406.159Zm.3-35.063a24.53,24.53,0,0,1-12.944,5.81,3.008,3.008,0,0,0-.06.372c0,4.846-.027,9.692.01,14.538a8.79,8.79,0,0,0,2.5,6.071,17.058,17.058,0,0,0,8.02,4.679,7.345,7.345,0,0,0,2.968.457,18.117,18.117,0,0,0,8.23-3.514c2.389-1.8,4.141-4.093,4.219-7.167.129-5.082.032-10.17.027-15.255,0-.054-.046-.108-.088-.2A24.443,24.443,0,0,1,197.311,151" transform="translate(-148.81 -121.06)" fill="#4bb00b"/>
    <path id="Path_15" data-name="Path 15" d="M103.592,167.39h14.066a5.124,5.124,0,0,0-2.785,2.7.637.637,0,0,1-.5.237q-5.288.012-10.576-.011c-.052,0-.1-.046-.207-.094Z" transform="translate(-84.989 -137.33)" fill="#4bb00b"/>
    <rect id="Rectangle_7" data-name="Rectangle 7" width="11.064" height="2.79" transform="translate(18.619 15.456)" fill="#4bb00b"/>
    <rect id="Rectangle_8" data-name="Rectangle 8" width="10.958" height="2.78" transform="translate(18.59 44.78)" fill="#4bb00b"/>
    <rect id="Rectangle_9" data-name="Rectangle 9" width="5.086" height="5.091" transform="translate(9.08 14.27)" fill="#4bb00b"/>
    <rect id="Rectangle_10" data-name="Rectangle 10" width="5.09" height="5.089" transform="translate(9.095 28.983)" fill="#4bb00b"/>
    <rect id="Rectangle_11" data-name="Rectangle 11" width="5.081" height="5.112" transform="translate(9.115 43.666)" fill="#4bb00b"/>
    <path id="Path_16" data-name="Path 16" d="M223.547,223.515l2.219-1.858,5.49,6.515,8.354-10.81,2.326,1.79c-1.514,1.97-2.982,3.883-4.453,5.792q-2.351,3.051-4.706,6.1c-.993,1.286-1.839,1.322-2.894.078-2.01-2.368-4-4.751-6-7.13-.113-.135-.2-.287-.337-.475" transform="translate(-183.402 -178.328)" fill="#4bb00b"/>
  </g>
</svg>
