<svg id="Group_26" data-name="Group 26" xmlns="http://www.w3.org/2000/svg" xmlns:xlink="http://www.w3.org/1999/xlink" width="44.479" height="44.479" viewBox="0 0 44.479 44.479">
  <defs>
    <clipPath id="clip-path">
      <rect id="Rectangle_24" data-name="Rectangle 24" width="44.479" height="44.479" fill="#4bb00b"/>
    </clipPath>
  </defs>
  <g id="Group_25" data-name="Group 25" clip-path="url(#clip-path)">
    <path id="Path_47" data-name="Path 47" d="M19.747,0c.816.122,1.645.192,2.447.375C29.539,2.044,34.356,6.492,36.5,13.7a17.6,17.6,0,0,1-.906,12.374.666.666,0,0,0,.159.893c2.229,2.2,4.423,4.429,6.652,6.626a6.408,6.408,0,0,1,2,3.765,1.129,1.129,0,0,0,.078.221V38.92a1.785,1.785,0,0,0-.088.269,6,6,0,0,1-3.536,4.705,13.8,13.8,0,0,1-1.841.586H37.578c-.323-.073-.65-.132-.968-.223a6.277,6.277,0,0,1-2.774-1.624c-2.3-2.307-4.614-4.6-6.9-6.919a.606.606,0,0,0-.816-.142,18.1,18.1,0,0,1-8.039,1.6A18.579,18.579,0,0,1,.279,21.68C.171,21.038.092,20.392,0,19.747v-2.3a2.381,2.381,0,0,0,.083-.367,16.925,16.925,0,0,1,1.668-6.329A18.312,18.312,0,0,1,15.008.373C15.78.209,16.569.123,17.351,0ZM2.1,18.59A16.493,16.493,0,1,0,18.593,2.1,16.471,16.471,0,0,0,2.1,18.59M28.484,34.334c.139.146.244.261.354.372q3.1,3.1,6.2,6.2a8.565,8.565,0,0,0,.634.583A4.143,4.143,0,0,0,41.06,35.2q-3.238-3.262-6.5-6.5c-.063-.063-.137-.117-.238-.2a19.011,19.011,0,0,1-5.839,5.84" fill="#4bb00b"/>
    <path id="Path_48" data-name="Path 48" d="M103.26,98.369c0-.916,0-1.791,0-2.665,0-1.037.337-1.37,1.38-1.371q1.749,0,3.5,0h.578V93.82c0-.815,0-1.629,0-2.444,0-1.052.325-1.376,1.371-1.376q2.467,0,4.935,0c.821,0,1.208.38,1.209,1.2q0,6.324,0,12.649a1.055,1.055,0,0,1-1.208,1.2q-8,0-16,0c-.824,0-1.212-.377-1.216-1.19q-.009-2.132,0-4.264c0-.828.36-1.185,1.2-1.192,1.23-.009,2.46,0,3.689,0,.171,0,.341-.015.562-.026m7.536,4.544h3.325V92.133H110.8Zm-2.113-6.466h-3.338v6.478h3.338Zm-5.458,4.045H99.908v2.439h3.317Z" transform="translate(-88.424 -81.371)" fill="#4bb00b"/>
    <path id="Path_49" data-name="Path 49" d="M123.629,276c2.09,0,4.181-.005,6.271,0a1.049,1.049,0,0,1,1.085,1.463,1.141,1.141,0,0,1-1.181.636q-4.476-.01-8.952,0c-1.149,0-2.3,0-3.447,0a1.091,1.091,0,0,1-1.232-1.049c0-.623.489-1.046,1.232-1.047q3.112-.005,6.223,0" transform="translate(-105.035 -249.542)" fill="#4bb00b"/>
  </g>
</svg>
