<svg xmlns="http://www.w3.org/2000/svg" width="197.063" height="22.589" viewBox="0 0 197.063 22.589">
  <g id="social_icons" data-name="social icons" transform="translate(-1445.937 -5798)">
    <g id="facebook" transform="translate(1445.937 5798)">
      <path id="svgviewer-output_19_" data-name="svgviewer-output (19)" d="M2.309,4.371V7.478H.032v3.8H2.309V22.57H6.984V11.279h3.138s.294-1.822.436-3.814H7v-2.6a1.1,1.1,0,0,1,1.013-.91h2.549V0H7.1C2.193,0,2.309,3.8,2.309,4.371Z" transform="translate(-0.032 0)" fill="#ecf3ff"/>
    </g>
    <g id="in" transform="translate(1500.796 5798)">
      <path id="svgviewer-output_20_" data-name="svgviewer-output (20)" d="M22.57,13.249v8.344H17.732V13.807c0-1.956-.7-3.291-2.45-3.291a2.647,2.647,0,0,0-2.482,1.77,3.306,3.306,0,0,0-.161,1.179v8.127H7.8s.066-13.185,0-14.553h4.84V9.1l-.032.047h.032V9.1A4.8,4.8,0,0,1,17,6.7C20.183,6.7,22.57,8.78,22.57,13.249ZM2.738.026a2.521,2.521,0,1,0-.063,5.029h.032A2.522,2.522,0,1,0,2.739.026ZM.287,21.593H5.125V7.041H.287Z" transform="translate(0 -0.026)" fill="#ecf3ff"/>
    </g>
    <g id="insta" transform="translate(1561.057 5798)">
      <path id="svgviewer-output_21_" data-name="svgviewer-output (21)" d="M42.9,39.285a3.611,3.611,0,1,1-3.611-3.611A3.611,3.611,0,0,1,42.9,39.285ZM50.57,34.32v9.931a6.327,6.327,0,0,1-6.32,6.32H34.32A6.327,6.327,0,0,1,28,44.251V34.32A6.327,6.327,0,0,1,34.32,28h9.931A6.327,6.327,0,0,1,50.57,34.32ZM44.7,39.285A5.417,5.417,0,1,0,39.285,44.7,5.417,5.417,0,0,0,44.7,39.285Zm1.806-5.868a1.354,1.354,0,1,0-1.354,1.354A1.354,1.354,0,0,0,46.508,33.417Z" transform="translate(-28 -28)" fill="#ecf3ff"/>
    </g>
    <g id="x" transform="translate(1620.43 5798)">
      <path id="X_logo_2023_original_2_" data-name="X_logo_2023_original (2)" d="M13.435,9.566,21.838,0H19.847l-7.3,8.3L6.721,0H0L8.812,12.559,0,22.589H1.991l7.7-8.772,6.154,8.772H22.57M2.709,1.47H5.767L19.846,21.191H16.787" transform="translate(0 0)" fill="#ecf3ff"/>
    </g>
  </g>
</svg>
